<?xml version="1.0" encoding="utf-8"?>
<!-- Generator: Adobe Illustrator 25.2.1, SVG Export Plug-In . SVG Version: 6.00 Build 0)  -->
<svg version="1.1" xmlns="http://www.w3.org/2000/svg" xmlns:xlink="http://www.w3.org/1999/xlink" x="0px" y="0px"
	 viewBox="0 0 1080 1080" style="enable-background:new 0 0 1080 1080;" xml:space="preserve">
<style type="text/css">
	.st0{fill:#5E2524;}
	.st1{fill:#1B6A5C;}
	.st2{fill:#5A8951;}
	.st3{fill:#8A9A97;}
	.st4{fill:#954044;}
	.st5{fill:#CB6253;}
	.st6{fill:#D48251;}
	.st7{fill:#E7C19D;}
	.st8{fill:#F9EAE0;}
	.st9{fill:none;}
</style>
<g id="Layer_2">
</g>
<g id="Layer_1">
	<g>
		<polygon class="st9" points="817,993.9 848.9,993.9 833,953 		"/>
		<path class="st9" d="M630.8,518.2c-11,0-19.9,8.9-19.9,19.9c0,11,8.9,19.9,19.9,19.9c11,0,19.9-8.9,19.9-19.9
			C650.7,527.1,641.8,518.2,630.8,518.2z"/>
		<path class="st9" d="M501.9,970.6c-6.8,0-12.5,2.4-17,7.2c-4.5,4.8-6.8,11-6.8,18.6c0,7.6,2.3,13.9,6.9,18.8
			c4.6,4.9,10.3,7.4,17,7.4c6.9,0,12.7-2.4,17.3-7.2c4.6-4.8,6.9-11.2,6.9-19c0-7.7-2.3-13.9-6.9-18.6
			C514.7,972.9,508.9,970.6,501.9,970.6z"/>
		<path class="st9" d="M459.1,802.2c16.7,4.4,33.5,7.5,50.2,9.4c-61.4-56.9-138-95.3-220.1-110.2
			C334.8,749.9,393.1,784.8,459.1,802.2z"/>
		<path class="st9" d="M337.4,264.5c11,0,19.9-8.9,19.9-19.9c0-11-8.9-19.9-19.9-19.9c-11,0-19.9,8.9-19.9,19.9
			C317.5,255.6,326.5,264.5,337.4,264.5z"/>
		<path class="st9" d="M581.5,777.7c8.6,9,17,18.4,25.1,28.1c23.1-68.6,62.5-131.5,114.6-182.4c51.7-50.5,114.8-88.3,183.3-109.9
			c2-11.9,3.3-23.8,4.1-35.7c-71.8,20.3-138.8,57.1-194.7,107.2C655,637.7,609.4,704.2,581.5,777.7z"/>
		<path class="st9" d="M243.7,641.6c7.5,12.4,15.8,24.3,24.6,35.5c103.5,13,200.3,61.5,273.1,136.8c14.5,0.4,29-0.2,43.3-1.6
			C498.2,711.6,375.9,650.4,243.7,641.6z"/>
		<path class="st9" d="M628.9,805.2c13.4-3,26.5-6.8,39.4-11.3c41.6-98,121.4-177,219.8-217.6c3.5-9.8,6.6-19.8,9.3-30
			c0.8-3.1,1.6-6.1,2.3-9.2c-61.1,21.1-117.4,55.8-164,101.3C687.9,685.2,651.3,742.5,628.9,805.2z"/>
		<path class="st9" d="M302.4,973.5c-4.3-3.1-9.3-4.6-15-4.6c-6.2,0-11.6,1.7-16.2,5.2c-2.9,2.2-5.6,6-8.1,11.4H311
			C309.6,980.5,306.7,976.6,302.4,973.5z"/>
		<path class="st9" d="M696.4,782.7c78.2-34.9,143.4-97.4,180.4-178.4C798.7,641.6,734.7,705,696.4,782.7z"/>
		<polygon class="st1" points="164.9,943.7 186,943.7 186,1040.5 209,1040.5 209,943.7 230.7,943.7 230.7,921.4 164.9,921.4 		"/>
		<path class="st1" d="M286.3,950.1c-13.1,0-23.9,4.4-32.6,13.3c-8.7,8.9-13,20-13,33.5c0,13.1,4.3,24,13,32.8
			c8.7,8.7,20,13.1,33.8,13.1c8.9,0,16.6-1.6,23.1-4.7c6.5-3.2,12-8,16.7-14.6l-18.6-8.7c-5.9,5.8-13,8.7-21.3,8.7
			c-6.9,0-12.6-1.8-17-5.5c-4.5-3.7-7.2-8.7-8.2-14.9h71l0.1-4.2c0-14.6-4.3-26.3-13-35.2C311.5,954.6,300.2,950.1,286.3,950.1z
			 M263.1,985.5c2.5-5.5,5.2-9.3,8.1-11.4c4.7-3.5,10.1-5.2,16.2-5.2c5.7,0,10.7,1.5,15,4.6c4.3,3.1,7.2,7.1,8.6,12H263.1z"/>
		<path class="st1" d="M374,953.5c-3.4,2.3-6.1,5.6-8.2,10v-11.1h-19v88.1h21.9v-35.6l-0.1-4.3c0-12.3,1.2-20.6,3.5-24.8
			c2.3-4.2,5.2-6.3,8.6-6.3c1.7,0,3.8,0.6,6.4,1.9l6.9-19c-3.1-1.5-6.1-2.3-9-2.3C381.1,950.1,377.4,951.3,374,953.5z"/>
		<path class="st1" d="M428,953.5c-3.4,2.3-6.1,5.6-8.2,10v-11.1h-19v88.1h21.9v-35.6l-0.1-4.3c0-12.3,1.2-20.6,3.5-24.8
			c2.3-4.2,5.2-6.3,8.6-6.3c1.7,0,3.8,0.6,6.4,1.9l6.9-19c-3.1-1.5-6.1-2.3-9-2.3C435.1,950.1,431.4,951.3,428,953.5z"/>
		<path class="st1" d="M525.1,962.1c-3.9-4-8.2-7-12.9-9s-9.6-3-14.9-3c-11.5,0-21.2,4.3-29.3,13c-8,8.7-12.1,19.8-12.1,33.4
			c0,13.1,4.2,24.1,12.5,32.9c8.3,8.8,18.1,13.2,29.5,13.2c5.1,0,9.8-0.9,14.1-2.7c4.3-1.8,8.7-4.8,13-8.9v9.3h22.1v-88.1h-22.1
			V962.1z M519.3,1015.3c-4.6,4.8-10.3,7.2-17.3,7.2c-6.7,0-12.4-2.5-17-7.4c-4.6-4.9-6.9-11.2-6.9-18.8c0-7.6,2.3-13.8,6.8-18.6
			c4.5-4.8,10.2-7.2,17-7.2c7,0,12.8,2.4,17.4,7.1c4.6,4.8,6.9,11,6.9,18.6C526.1,1004.1,523.8,1010.5,519.3,1015.3z"/>
		<rect x="568.2" y="952.4" class="st1" width="22.1" height="88.1"/>
		<path class="st1" d="M579.2,916.1c-3.9,0-7.2,1.4-9.9,4.1c-2.7,2.8-4.1,6.1-4.1,10c0,4,1.4,7.5,4.2,10.3c2.8,2.8,6.1,4.3,10.1,4.3
			c3.8,0,7.1-1.4,9.9-4.2c2.7-2.8,4.1-6.1,4.1-10.1c0-4-1.4-7.4-4.2-10.2C586.4,917.5,583.1,916.1,579.2,916.1z"/>
		<path class="st1" d="M659.6,950.1c-4.3,0-8.4,0.8-12.5,2.5c-4.1,1.7-8.6,4.6-13.6,8.8v-9h-22.1v88.1h22.1v-35.4
			c0-9.2,0.3-15.1,1-17.9c1.2-5.3,3.5-9.4,6.7-12.4c3.2-3,7-4.5,11.5-4.5c3.4,0,6.3,0.9,8.7,2.7c2.3,1.8,4,4.4,4.9,7.9
			c0.9,3.5,1.4,10.4,1.4,21v38.6h21.9v-58.2c0-10.1-2.6-17.8-7.7-23C675.7,953.2,668.3,950.1,659.6,950.1z"/>
		<rect x="715" y="986.4" class="st1" width="41.1" height="20.6"/>
		<path class="st1" d="M821.3,921.4l-45.9,119.1h23.6l9.7-24.5h48.6l9.3,24.5h23.6l-45.8-119.1H821.3z M817,993.9l16-40.9l15.9,40.9
			H817z"/>
		<rect x="907.1" y="921.4" class="st1" width="22.5" height="119.1"/>
		<path class="st1" d="M302.5,223.7c-3.7,6.1-5.9,13.3-5.9,21c0,22.5,18.3,40.8,40.8,40.8c22.5,0,40.8-18.3,40.8-40.8
			c0-22.5-18.3-40.8-40.8-40.8c-7.2,0-14,1.9-19.9,5.2l-51.8-51.8c39.9-38.8,87.7-69.6,141-90l-7.5-19.5
			C279.4,93.7,186.4,189.3,144,310.4l19.7,6.9c19.1-54.6,49.1-103.7,87.4-145L302.5,223.7z M337.4,224.8c11,0,19.9,8.9,19.9,19.9
			c0,11-8.9,19.9-19.9,19.9c-11,0-19.9-8.9-19.9-19.9C317.5,233.7,326.5,224.8,337.4,224.8z"/>
		<path class="st1" d="M295.5,365.6v22.1c81-38.3,146.7-104,185.1-185h-22.1C423.1,272.9,365.7,330.2,295.5,365.6z"/>
		<path class="st1" d="M499.7,234c-31.6,59.5-77.7,111.3-135.3,150.3c-21.9,14.8-44.9,27.3-68.8,37.6v21.6
			c27.9-11.3,54.7-25.6,80-42.7C448.7,351.3,504,282,536.3,202.7h-21.5C510.2,213.3,505.1,223.8,499.7,234z"/>
		<path class="st1" d="M393.1,426.9c-30.7,20.7-63.4,37.5-97.5,50.3v21.2c38.1-13.6,74.6-32,108.6-55c87.7-59.2,152.4-144,187-240.7
			H570C536.3,292.7,475.2,371.4,393.1,426.9z"/>
		<path class="st1" d="M511.1,580.6c34.9-70.5,91.7-128.3,161.6-164.3v-22.2C591.9,433,526.7,499.2,489,580.6H511.1z"/>
		<path class="st1" d="M672.6,338.3c-108.6,45.2-195.3,132.9-239,242.3h21.5c41.6-98.5,119.8-177.7,217.5-220.7V338.3z"/>
		<path class="st1" d="M647,87.7C533,57.7,413.9,81.5,320.1,152.9l12.7,16.6c88.7-67.5,201.3-90,308.9-61.7
			c161.2,42.4,268,188.6,267.7,348c-77.3,20.8-149.4,59.8-209.4,113.6c-3.9,3.5-7.7,7-11.5,10.6L666.4,558
			c3.3-5.9,5.2-12.7,5.2-19.9c0-22.5-18.3-40.8-40.8-40.8c-22.5,0-40.8,18.3-40.8,40.8c0,22.5,18.3,40.8,40.8,40.8
			c7.7,0,14.8-2.2,21-5.9l21.8,21.8c-46.5,48.1-83.5,104.9-108.3,166.8c-90-85.9-208-136.5-333.8-141.6
			c-41.1-79.1-51.2-169.4-28.3-256.2c12.3-46.8,33.4-89.9,62.8-127.9l-16.6-12.8c-31,40.2-53.4,85.8-66.4,135.3
			c-25.8,98.1-11.8,200.4,39.3,288.1c51.1,87.6,133.3,150.1,231.5,175.9c32.3,8.5,64.6,12.5,96.5,12.5
			c168.4,0,322.7-113,367.4-283.3c1.9-7.3,3.6-14.5,5-21.8c0.1,0,0.3-0.1,0.4-0.1l-0.2-0.8c3.8-18.9,6-37.8,6.9-56.6
			c0.1,0,0.2,0,0.2-0.1l-0.2-0.8C937.4,296.8,822.7,133.9,647,87.7z M630.8,557.9c-11,0-19.9-8.9-19.9-19.9c0-11,8.9-19.9,19.9-19.9
			c11,0,19.9,8.9,19.9,19.9C650.7,549,641.8,557.9,630.8,557.9z M459.1,802.2c-66-17.3-124.3-52.2-169.9-100.7
			c82,14.9,158.7,53.3,220.1,110.2C492.6,809.7,475.8,806.6,459.1,802.2z M541.4,813.9c-72.8-75.3-169.7-123.8-273.1-136.8
			c-8.8-11.3-17-23.1-24.6-35.5c132.2,8.8,254.5,70.1,341,170.8C570.4,813.7,556,814.3,541.4,813.9z M696.4,782.7
			c38.2-77.7,102.3-141.1,180.4-178.4C839.8,685.3,774.6,747.8,696.4,782.7z M897.5,546.3c-2.7,10.2-5.8,20.3-9.3,30
			c-98.5,40.5-178.2,119.6-219.8,217.6c-12.9,4.5-26,8.3-39.4,11.3c22.3-62.7,59-120.1,106.9-166.9c46.6-45.5,102.9-80.2,164-101.3
			C899.1,540.2,898.3,543.2,897.5,546.3z M904.5,513.5c-68.5,21.6-131.6,59.4-183.3,109.9c-52.1,50.9-91.5,113.8-114.6,182.4
			c-8-9.7-16.4-19.1-25.1-28.1c27.9-73.5,73.5-140,132.3-192.7c56-50.1,122.9-86.9,194.7-107.2C907.8,489.7,906.5,501.6,904.5,513.5
			z"/>
	</g>
</g>
<g id="Layer_3">
</g>
</svg>
